<?xml version="1.0" ?>
<!-- Uploaded to: SVG Repo, www.svgrepo.com, Generator: SVG Repo Mixer Tools -->
<svg width="800px" height="800px" viewBox="0 0 91 91" id="Layer_1" version="1.1" xml:space="preserve" xmlns="http://www.w3.org/2000/svg" xmlns:xlink="http://www.w3.org/1999/xlink">
<style type="text/css">
	.st0{fill:#4E7A9E;}
	.st1{fill:#90BED0;}
</style>
<g>
<g>
<path class="st0" d="M49.6,25.4c2.8,0.7,5.6,0.7,8.5,0.8c2.9,0.1,5.8,0.3,8.7-0.1c2.8-0.4,2.8-5.2,0-5.6c-2.9-0.4-5.8-0.2-8.7-0.1    c-2.8,0.1-5.7,0.1-8.5,0.8C47.4,21.7,47.4,24.9,49.6,25.4L49.6,25.4z"/>
<path class="st1" d="M74.9,31.9c-5.4-0.6-11,1-16.1,2.5c-3.2,0.9-6.2,2.1-9.3,2.2c-2.4-2.1-7.3-0.1-5.9,3.5    c3.3,8.3,11.6,13.2,19.8,15.6c8.3,2.5,19,1.5,22.7-7.5C89.4,40.2,82.8,32.8,74.9,31.9z M77.5,50.2c-3.7,2.1-8.2,1.3-12,0    c-5.1-1.8-9.2-4.8-12.4-8.8c2.1-0.3,4.3-0.9,6.1-1.3c6-1.3,18.7-6.2,22.1,1.9C82.7,45.2,80.2,48.6,77.5,50.2z"/>
<g>
<path class="st0" d="M27.6,26.1c2.8-0.4,2.8-5.2,0-5.6c-2.9-0.4-5.8-0.2-8.7-0.1c-2.8,0.1-5.7,0.1-8.5,0.8     c-2.1,0.5-2.1,3.8,0,4.3c2.8,0.7,5.6,0.7,8.5,0.8C21.9,26.3,24.8,26.5,27.6,26.1z"/>
<path class="st0" d="M66.5,65.7c-7.6-9.9-17.3-17.6-30.5-16c-5.8,0.7-11.4,2.8-15.8,6.7c-3.1,2.8-6.3,7.3-7.3,11.4     c-0.4,1.8,1.6,2.8,3,1.7c2.8-2.2,4.7-5.5,7.4-7.8C27,58.6,31.1,56.6,36,56c8.5-1.1,15.2,2.5,20.7,8.1C49.5,64,42.3,64,35.1,64     c-4.3,0-4.3,6.7,0,6.7c9.5,0,19.1,0,28.6-0.1C65.9,70.6,68.1,67.7,66.5,65.7z"/>
</g>
</g>
</g>
</svg>