<?xml version="1.0" encoding="UTF-8"?>
<svg version="1.1" xmlns="http://www.w3.org/2000/svg" width="512" height="512">
<path d="M0 0 C1.2992895 1.09518656 2.59176631 2.19854394 3.875 3.3125 C4.46023438 3.7559375 5.04546875 4.199375 5.6484375 4.65625 C31.70387814 24.93469249 35.55214296 64.58428835 39.44091797 94.74755859 C46.19418953 149.87586766 47.47351585 205.86118411 49.875 261.3125 C49.90692947 262.04901039 49.93885895 262.78552078 49.97175598 263.54434967 C50.6800396 279.91878976 51.32988184 296.29379905 51.79888916 312.67700195 C51.87305307 315.24508349 51.95275826 317.81295272 52.03271484 320.38085938 C52.16331565 324.73291488 52.24516965 329.08400488 52.3125 333.4375 C52.36422363 335.22679932 52.36422363 335.22679932 52.41699219 337.05224609 C52.45632393 344.64674338 52.45632393 344.64674338 49.53515625 347.9921875 C44.02855019 350.72527539 38.62616254 351.41656557 32.671875 349.6640625 C26.30463059 346.98432295 20.63861843 343.07632981 14.875 339.3125 C7.2669193 334.43666434 0.70506781 330.34370203 -8.625 331.71484375 C-15.6590907 333.39643106 -22.109954 336.76244322 -28.5 340.06591797 C-38.1836815 345.05645749 -46.24730588 347.85106707 -57.125 345.3125 C-60.80020436 343.99034989 -64.3851838 342.4662489 -67.93554688 340.84008789 C-74.62672082 337.8304759 -79.87807693 336.22676475 -86.9921875 338.80859375 C-92.58103415 341.2952565 -97.36089755 344.73651031 -102.25 348.375 C-109.73963333 353.93200972 -116.35032296 358.7366774 -126.0625 358.75 C-127.46822266 358.77900391 -127.46822266 358.77900391 -128.90234375 358.80859375 C-137.49914749 357.48520699 -145.21034704 352.12627156 -152.63867188 347.84765625 C-161.44948152 342.84957914 -168.92331516 341.07593214 -179.125 342.3125 C-182.47844943 343.33304254 -185.64428984 344.7392298 -188.84472656 346.15795898 C-194.01451832 348.41207003 -197.5539143 349.13446346 -203.125 348.3125 C-205.5625 347.25 -205.5625 347.25 -207.125 345.3125 C-231.154105 280.81332341 -202.81463734 149.86349418 -174.125 51.3125 C-160.27266895 21.36109516 -140.79467735 -3.50783206 -109.08984375 -15.22265625 C-73.43233008 -27.7637466 -30.49555669 -23.32316688 0 0 Z M-107.125 79.3125 C-112.62073519 86.77099775 -111.59429842 96.4827372 -111.125 105.3125 C-110.32216317 110.37445427 -109.16870735 113.31733718 -105.4375 116.875 C-101.1337525 118.74266401 -98.79756633 118.83167404 -94.125 118.3125 C-90.41305003 116.66274446 -88.27174601 114.74729361 -86.125 111.3125 C-84.66242519 106.92477557 -84.90008438 102.65921301 -84.875 98.0625 C-84.854375 97.13308594 -84.83375 96.20367187 -84.8125 95.24609375 C-84.77315977 88.29270723 -85.53786441 83.28009671 -90.25 77.875 C-95.83406955 74.84017959 -102.19763572 75.10974811 -107.125 79.3125 Z M-16.125 79.3125 C-21.09310844 84.44621205 -20.33825523 90.98157986 -20.375 97.6875 C-20.395625 98.62078125 -20.41625 99.5540625 -20.4375 100.515625 C-20.4677489 105.85455523 -20.24975545 109.76612158 -17.125 114.3125 C-14.95540522 116.45052064 -13.72724538 117.2126154 -10.72265625 117.7109375 C-3.82517552 117.77480114 -3.82517552 117.77480114 1.875 114.3125 C4.51144841 108.46227872 5.34793727 103.68930469 5.25 97.3125 C5.26160156 96.55710937 5.27320313 95.80171875 5.28515625 95.0234375 C5.2540375 88.98639924 4.31542706 83.01440139 0.125 78.375 C-5.94310029 75.50950819 -10.34566394 76.08940874 -16.125 79.3125 Z M-63.4375 134.75 C-65.16255423 137.3695268 -65.77181256 139.22210986 -66.125 142.3125 C-64.64 143.3025 -64.64 143.3025 -63.125 144.3125 C-62.81046875 143.68601563 -62.4959375 143.05953125 -62.171875 142.4140625 C-61.52992188 141.18816406 -61.52992188 141.18816406 -60.875 139.9375 C-60.24851562 138.71933594 -60.24851562 138.71933594 -59.609375 137.4765625 C-57.93871476 135.04091573 -56.88821177 134.27858532 -54.125 133.3125 C-52.125 133.046875 -52.125 133.046875 -50.125 133.0625 C-49.465 133.05734375 -48.805 133.0521875 -48.125 133.046875 C-45.67378191 133.3724274 -44.19250085 133.94257057 -42.125 135.3125 C-40.640625 137.4765625 -40.640625 137.4765625 -39.375 139.9375 C-38.94703125 140.75476563 -38.5190625 141.57203125 -38.078125 142.4140625 C-37.76359375 143.04054687 -37.4490625 143.66703125 -37.125 144.3125 C-36.135 143.3225 -35.145 142.3325 -34.125 141.3125 C-36.70542595 135.37319558 -39.11717065 131.31641468 -45.125 128.3125 C-53.20565809 127.42595298 -57.73460433 128.7388397 -63.4375 134.75 Z " fill="#000000" transform="translate(335.125,46.6875)"/>
<path d="M0 0 C1.8125 3.0625 1.8125 3.0625 2 6 C0.22980219 10.64676925 -2.86216268 12.4710483 -7 15 C-23.80510395 22.21717323 -42.9121058 24.52347312 -61 26 C-62.57273682 26.13136353 -62.57273682 26.13136353 -64.17724609 26.26538086 C-74.7477926 27.06462426 -85.27856819 27.20067979 -95.875 27.1875 C-97.22644608 27.18659363 -97.22644608 27.18659363 -98.60519409 27.18566895 C-169.60042644 27.0568281 -169.60042644 27.0568281 -192.625 10.0625 C-194 8 -194 8 -194.6875 5.125 C-193.82013673 1.18243969 -192.56491934 -0.16303341 -189.390625 -2.5625 C-172.04125359 -12.99480177 -147.81084459 -14.65484405 -128 -16 C-126.80528076 -16.08459473 -126.80528076 -16.08459473 -125.58642578 -16.17089844 C-26.40717837 -22.9172429 -26.40717837 -22.9172429 0 0 Z " fill="#000000" transform="translate(352,460)"/>
</svg>
