<?xml version="1.0" encoding="UTF-8"?>
<svg version="1.1" xmlns="http://www.w3.org/2000/svg" width="512" height="512">
<path d="M0 0 C0.76328613 0.17660156 1.52657227 0.35320312 2.31298828 0.53515625 C26.26411504 6.3000809 48.49028527 18.17970903 68 33 C68.88558594 33.66 69.77117187 34.32 70.68359375 35 C110.01741362 65.65283984 132.82608215 109.62824526 140.25 158.375 C140.53451868 160.91909423 140.78649188 163.45032264 141 166 C141.07234863 166.79905762 141.14469727 167.59811523 141.21923828 168.42138672 C142.31069354 181.37732051 141.83761645 193.96635601 140.5625 206.875 C139.5223544 217.40741016 138.67383648 227.84075866 138.625 238.4375 C138.61154541 239.45376465 138.59809082 240.4700293 138.58422852 241.51708984 C138.66293929 254.76045499 143.82961698 265.52677208 149.375 277.25 C156.5473359 292.42144398 162.91012356 306.13855768 162.625 323.3125 C162.64433594 324.49650391 162.66367187 325.68050781 162.68359375 326.90039062 C162.62767437 336.99383801 159.66103044 344.93518742 152.7890625 352.40625 C149.2234546 355.58259939 145.24365104 357.84884049 141 360 C140.33613281 360.34289062 139.67226563 360.68578125 138.98828125 361.0390625 C125.40995029 366.74783033 110.18292582 362.51659706 97 358 C87.1126311 354.74414626 87.1126311 354.74414626 77 356 C71.06582732 359.07337003 65.82904763 363.12441866 60.5 367.125 C49.65787114 375.13604213 39.41132359 378.20122498 26 377 C17.78065138 374.79742945 10.21510081 370.11085859 2.78588867 366.03540039 C2.09342041 365.65762451 1.40095215 365.27984863 0.6875 364.890625 C0.07261719 364.55063477 -0.54226563 364.21064453 -1.17578125 363.86035156 C-6.94332822 361.14021833 -13.58726286 361.01488 -19.65234375 362.765625 C-27.05127971 365.71274676 -33.97576591 369.62904759 -40.97875977 373.39575195 C-56.1664757 381.45171236 -73.37630764 385.20564162 -90.3371582 380.61621094 C-98.27693046 378.13938667 -105.18095892 374.31795704 -112.26464844 370.03173828 C-125.44407351 362.19602495 -134.89227281 359.85273471 -150 363 C-155.14136867 364.35784334 -160.22723178 365.88573387 -165.3125 367.4375 C-192.49649208 375.72641148 -222.33138641 381.59291053 -249.35546875 369.4375 C-256.28398646 365.6713338 -261.19267947 359.86420533 -266.23828125 353.91796875 C-269.82292374 350.01539787 -272.85729412 349.42855882 -278 349 C-280.59180467 349.23198252 -283.17707284 349.54851002 -285.75 349.9375 C-302.77389796 352.27074442 -318.49318261 350.74948926 -333.0625 340.9375 C-342.67764999 332.19645456 -349.67436214 321.01279416 -350.47265625 308 C-350.54198964 305.77133321 -350.59251496 303.54200835 -350.625 301.3125 C-350.64828369 300.24298096 -350.67156738 299.17346191 -350.69555664 298.0715332 C-350.62263194 290.78754285 -349.12875154 285.98404048 -345 280 C-344.443125 279.13375 -343.88625 278.2675 -343.3125 277.375 C-332.74212941 266.51894372 -318.40413433 261.79689797 -303.69262695 260.06469727 C-291.807328 258.6079938 -284.16481745 256.31368044 -276.4375 246.6875 C-259.83940096 222.80243065 -250.39441346 193.74185725 -239.9375 166.8125 C-227.01521141 133.54582423 -213.77618472 101.26791483 -193 72 C-192.54189941 71.3498291 -192.08379883 70.6996582 -191.61181641 70.02978516 C-171.37097814 41.69570061 -142.41246012 20.37959247 -110 8 C-109.32501465 7.74025391 -108.6500293 7.48050781 -107.95458984 7.21289062 C-74.06813436 -5.55660411 -35.28573064 -8.31061856 0 0 Z " fill="#F1F1F1" transform="translate(350,67)"/>
<path d="M0 0 C0.76328613 0.17660156 1.52657227 0.35320312 2.31298828 0.53515625 C26.26411504 6.3000809 48.49028527 18.17970903 68 33 C68.88558594 33.66 69.77117187 34.32 70.68359375 35 C110.01741362 65.65283984 132.82608215 109.62824526 140.25 158.375 C140.53451868 160.91909423 140.78649188 163.45032264 141 166 C141.07234863 166.79905762 141.14469727 167.59811523 141.21923828 168.42138672 C142.31069354 181.37732051 141.83761645 193.96635601 140.5625 206.875 C139.5223544 217.40741016 138.67383648 227.84075866 138.625 238.4375 C138.61154541 239.45376465 138.59809082 240.4700293 138.58422852 241.51708984 C138.66293929 254.76045499 143.82961698 265.52677208 149.375 277.25 C156.5473359 292.42144398 162.91012356 306.13855768 162.625 323.3125 C162.64433594 324.49650391 162.66367187 325.68050781 162.68359375 326.90039062 C162.62767437 336.99383801 159.66103044 344.93518742 152.7890625 352.40625 C149.2234546 355.58259939 145.24365104 357.84884049 141 360 C140.33613281 360.34289062 139.67226563 360.68578125 138.98828125 361.0390625 C125.40995029 366.74783033 110.18292582 362.51659706 97 358 C87.1126311 354.74414626 87.1126311 354.74414626 77 356 C71.06582732 359.07337003 65.82904763 363.12441866 60.5 367.125 C49.65787114 375.13604213 39.41132359 378.20122498 26 377 C17.78065138 374.79742945 10.21510081 370.11085859 2.78588867 366.03540039 C2.09342041 365.65762451 1.40095215 365.27984863 0.6875 364.890625 C0.07261719 364.55063477 -0.54226563 364.21064453 -1.17578125 363.86035156 C-6.94332822 361.14021833 -13.58726286 361.01488 -19.65234375 362.765625 C-27.05127971 365.71274676 -33.97576591 369.62904759 -40.97875977 373.39575195 C-56.1664757 381.45171236 -73.37630764 385.20564162 -90.3371582 380.61621094 C-98.27693046 378.13938667 -105.18095892 374.31795704 -112.26464844 370.03173828 C-125.44407351 362.19602495 -134.89227281 359.85273471 -150 363 C-155.14136867 364.35784334 -160.22723178 365.88573387 -165.3125 367.4375 C-192.49649208 375.72641148 -222.33138641 381.59291053 -249.35546875 369.4375 C-256.28398646 365.6713338 -261.19267947 359.86420533 -266.23828125 353.91796875 C-269.82292374 350.01539787 -272.85729412 349.42855882 -278 349 C-280.59180467 349.23198252 -283.17707284 349.54851002 -285.75 349.9375 C-302.77389796 352.27074442 -318.49318261 350.74948926 -333.0625 340.9375 C-342.67764999 332.19645456 -349.67436214 321.01279416 -350.47265625 308 C-350.54198964 305.77133321 -350.59251496 303.54200835 -350.625 301.3125 C-350.64828369 300.24298096 -350.67156738 299.17346191 -350.69555664 298.0715332 C-350.62263194 290.78754285 -349.12875154 285.98404048 -345 280 C-344.443125 279.13375 -343.88625 278.2675 -343.3125 277.375 C-332.74212941 266.51894372 -318.40413433 261.79689797 -303.69262695 260.06469727 C-291.807328 258.6079938 -284.16481745 256.31368044 -276.4375 246.6875 C-259.83940096 222.80243065 -250.39441346 193.74185725 -239.9375 166.8125 C-227.01521141 133.54582423 -213.77618472 101.26791483 -193 72 C-192.54189941 71.3498291 -192.08379883 70.6996582 -191.61181641 70.02978516 C-171.37097814 41.69570061 -142.41246012 20.37959247 -110 8 C-109.32501465 7.74025391 -108.6500293 7.48050781 -107.95458984 7.21289062 C-74.06813436 -5.55660411 -35.28573064 -8.31061856 0 0 Z M-161 58 C-161.74894531 58.67546875 -162.49789062 59.3509375 -163.26953125 60.046875 C-182.45760565 78.33611903 -195.79667887 103.28368088 -207 127 C-207.55083252 128.16402344 -207.55083252 128.16402344 -208.11279297 129.3515625 C-215.31985618 144.77497996 -221.39541541 160.61751451 -227.5 176.5 C-233.91819318 193.19841063 -240.34093305 209.8215965 -248 226 C-248.36625488 226.77408203 -248.73250977 227.54816406 -249.10986328 228.34570312 C-251.31035612 232.9513396 -253.6113071 237.48916362 -256 242 C-256.55945313 243.0725 -257.11890625 244.145 -257.6953125 245.25 C-264.15067654 257.01978001 -272.63715101 267.28203128 -285.55859375 271.91796875 C-292.99495547 273.99593082 -300.69953415 274.8950794 -308.35083008 275.82299805 C-317.4084812 276.9846718 -325.86741406 278.75528708 -332 286 C-336.8326339 293.20605765 -337.01246702 301.01366587 -335.59765625 309.37890625 C-333.06094691 318.64701422 -326.56609059 326.98010729 -318.34375 331.8515625 C-307.17179042 337.3258227 -296.79128868 336.32271186 -284.78295898 334.72094727 C-277.30838998 333.73813506 -270.08434651 332.9086488 -263 336 C-259.38841487 339.0012775 -256.25331112 342.40053628 -253.359375 346.09375 C-248.57610098 352.13089196 -243.07116794 355.07464199 -236 358 C-235.12988281 358.37511719 -234.25976562 358.75023437 -233.36328125 359.13671875 C-209.34972613 365.3004768 -181.71392475 356.66918828 -159 349 C-151.63236294 346.53492293 -144.73118088 345.693087 -137 345.5625 C-136.19312744 345.54010254 -135.38625488 345.51770508 -134.55493164 345.49462891 C-122.22565331 345.5417014 -112.51803835 351.08569534 -102.375 357.5625 C-90.4942228 365.13685857 -80.7020554 369.9475964 -66.5 367 C-59.19656902 365.04568995 -52.75166822 361.61038725 -46.09960938 358.10253906 C-42.5864352 356.25771411 -39.04421737 354.47173496 -35.5 352.6875 C-34.86610352 352.36241455 -34.23220703 352.0373291 -33.57910156 351.70239258 C-26.81278025 348.28104927 -20.78511399 345.57192362 -13.0625 345.625 C-11.37833984 345.61339844 -11.37833984 345.61339844 -9.66015625 345.6015625 C-1.52619002 346.48701027 5.08932885 349.90875205 12.0625 354 C23.28316431 360.72925221 23.28316431 360.72925221 36 362 C44.23591124 359.57040618 50.88878145 355.13178119 57.65625 349.9765625 C68.20183208 342.0081311 76.56331868 338.53151024 90 340 C94.44877821 341.03435413 98.69434859 342.48637433 103 344 C114.60315161 347.79087514 124.34741941 350.38585841 135.84765625 345.1171875 C142.4909166 341.66896162 145.67325227 337.05653001 148 330 C150.67505682 312.19703565 141.5200474 296.18097123 134.1484375 280.671875 C131.72918901 275.57676947 129.37332133 270.47578364 127.25 265.25 C126.60804688 263.67992187 126.60804688 263.67992187 125.953125 262.078125 C123.60491343 254.4945565 123.80785874 246.68000791 123.8125 238.8125 C123.81185547 237.65613037 123.81121094 236.49976074 123.81054688 235.30834961 C123.85188759 228.49135987 124.20588465 221.82938389 125 215.0625 C130.30772248 167.51434903 122.41507217 117.43212294 92.37890625 78.93359375 C91.59386719 77.96550781 90.80882812 76.99742187 90 76 C89.56929199 75.46777832 89.13858398 74.93555664 88.69482422 74.38720703 C78.66560765 62.06663071 67.79670448 51.42178695 55 42 C54.4215332 41.57187012 53.84306641 41.14374023 53.24707031 40.70263672 C42.58388395 32.9222826 31.04571247 27.32240734 19 22 C17.84757812 21.484375 16.69515625 20.96875 15.5078125 20.4375 C-2.17398642 13.08921993 -20.71396875 10.76469098 -39.6875 10.75 C-40.46833954 10.74932526 -41.24917908 10.74865051 -42.05368042 10.74795532 C-87.6350789 10.8104508 -127.31281994 27.61592079 -161 58 Z " fill="#43220C" transform="translate(350,67)"/>
<path d="M0 0 C4.0850261 2.56747861 6.63212937 5.77596557 8.33984375 10.2734375 C10.80932676 21.28321593 8.9423354 33.20108659 7.68359375 44.26171875 C7.5662085 45.30779297 7.44882324 46.35386719 7.32788086 47.43164062 C5.19653739 64.43886384 5.19653739 64.43886384 -2.00390625 70.19921875 C-6.3544029 71.6493843 -10.4572481 71.70991982 -15.00390625 71.19921875 C-20.80435624 68.29899376 -24.36997088 64.24927736 -26.75390625 58.26171875 C-29.76170232 48.11453861 -27.93266541 37.21148437 -26.75390625 26.88671875 C-26.64481934 25.87279053 -26.53573242 24.8588623 -26.42333984 23.81420898 C-25.51296387 16.53657042 -24.01080908 9.7687034 -19.1875 4.04296875 C-18.61128906 3.59953125 -18.03507813 3.15609375 -17.44140625 2.69921875 C-16.86261719 2.23515625 -16.28382813 1.77109375 -15.6875 1.29296875 C-11.13395152 -1.665253 -5.00512594 -2.00009906 0 0 Z " fill="#43230D" transform="translate(231.00390625,174.80078125)"/>
<path d="M0 0 C4.65234617 3.0731094 6.68873287 7.42248655 8.3125 12.625 C9.0612255 22.03354071 8.03275037 31.52372803 7 40.875 C6.88205078 42.06351563 6.76410156 43.25203125 6.64257812 44.4765625 C4.80254768 61.5746916 4.80254768 61.5746916 -0.1875 67.6875 C-4.89176805 71.33330774 -9.9549656 71.26890402 -15.6875 70.625 C-21.86359495 67.53695253 -25.9139468 62.78325448 -28.15234375 56.21484375 C-30.9900849 42.48183367 -30.05909543 18.76771551 -22.6875 6.625 C-16.23093198 -0.64026947 -9.40697222 -3.50768456 0 0 Z " fill="#43230D" transform="translate(339.6875,184.375)"/>
<path d="M0 0 C4.24931258 2.7856326 8.20303721 5.95639485 12.11889648 9.18798828 C17.75750396 13.79390428 23.79089616 17.0799778 30.328125 20.26171875 C27.86275998 22.72708377 25.82283852 23.25171917 22.515625 24.32421875 C21.47792969 24.66582031 20.44023437 25.00742187 19.37109375 25.359375 C7.94004295 28.74907042 -1.31687857 27.19329866 -11.82739258 21.57495117 C-15.01562744 19.66250706 -18.16340351 17.70008694 -21.296875 15.69921875 C-31.12777388 9.43172026 -39.55719981 5.14969302 -51.296875 4.57421875 C-52.50601563 4.50847656 -53.71515625 4.44273437 -54.9609375 4.375 C-56.30285156 4.31892578 -56.30285156 4.31892578 -57.671875 4.26171875 C-57.671875 3.93171875 -57.671875 3.60171875 -57.671875 3.26171875 C-55.9084375 3.19984375 -55.9084375 3.19984375 -54.109375 3.13671875 C-47.98644553 2.49322616 -42.63839475 0.02026457 -37.02734375 -2.36328125 C-25.03113703 -7.27907259 -11.15795087 -6.39636021 0 0 Z " fill="#CBCACA" transform="translate(266.671875,407.73828125)"/>
<path d="M0 0 C1.31510921 0.65821068 2.62532541 1.32628147 3.93066406 2.00366211 C6.12006898 3.13973792 8.32843778 4.23045046 10.54345703 5.31567383 C14.3749633 7.20006204 18.18420912 9.12376644 21.98486328 11.06958008 C15.61423531 17.75370117 8.0436811 22.37048571 -1.26513672 23.44458008 C-10.60146275 22.51094747 -18.54920823 17.24545864 -26.5065918 12.59936523 C-32.4403541 9.18701518 -38.07593609 7.07935244 -44.95263672 6.44458008 C-45.72478516 6.36981445 -46.49693359 6.29504883 -47.29248047 6.21801758 C-48.14519531 6.14454102 -48.14519531 6.14454102 -49.01513672 6.06958008 C-49.01513672 5.73958008 -49.01513672 5.40958008 -49.01513672 5.06958008 C-47.46826172 4.79114258 -47.46826172 4.79114258 -45.89013672 4.50708008 C-41.6540339 3.50554964 -38.34526614 1.59564878 -34.57763672 -0.55541992 C-23.06532357 -6.67583084 -11.52498072 -5.49158559 0 0 Z " fill="#CBCACA" transform="translate(384.01513671875,405.930419921875)"/>
<path d="M0 0 C1.51662999 1.18692782 3.03281221 2.37451012 4.53857422 3.57519531 C7.85154073 6.21233556 11.20243641 8.79830458 14.5625 11.375 C15.54911621 12.15532593 15.54911621 12.15532593 16.55566406 12.95141602 C20.70619515 16.13457345 24.12655395 17.83062356 29.25 18.9375 C29.25 19.2675 29.25 19.5975 29.25 19.9375 C14.86195513 22.57288779 -2.78438919 23.5880157 -15.75 15.9375 C-16.70519531 15.37804687 -17.66039063 14.81859375 -18.64453125 14.2421875 C-23.23728895 10.83372581 -26.74651886 6.5823517 -30.45117188 2.25 C-34.32666873 -2.09330323 -36.97602068 -4.0448638 -42.75 -5.0625 C-42.75 -5.7225 -42.75 -6.3825 -42.75 -7.0625 C-26.76637246 -11.27465596 -13.36662664 -9.89454193 0 0 Z " fill="#CBCACA" transform="translate(122.75,406.0625)"/>
<path d="M0 0 C2.57365089 1.28682545 2.72348972 2.44697943 4 5 C4.66 5.825 5.32 6.65 6 7.5 C9.4497946 11.81224325 10.24305666 14.46253591 10.0546875 20.015625 C10.03019531 21.18480469 10.00570312 22.35398437 9.98046875 23.55859375 C9.91059554 26.00415595 9.83257396 28.44949998 9.74609375 30.89453125 C9.61084446 38.14230211 9.95719184 42.89629319 14 49 C18.22124845 52.94902851 22.40154195 54.7432033 28 56 C28 56.33 28 56.66 28 57 C17.33716937 57.75563367 7.22492888 55.78199847 -1.1875 48.82421875 C-8.76997345 41.19272069 -12.96614053 32.78075557 -13.5 22.0625 C-13.30644203 15.16479766 -11.17521448 9.36929849 -6.40234375 4.3046875 C-4.40100595 2.58363534 -2.36158272 1.18079136 0 0 Z " fill="#CACACA" transform="translate(27,346)"/>
<path d="M0 0 C0.773508 0.07929749 1.54701599 0.15859497 2.34396362 0.24029541 C3.96606572 0.40929296 5.58790259 0.58085435 7.20947266 0.75488281 C8.85909308 0.9290076 10.50951989 1.09565213 12.16064453 1.25488281 C14.56741308 1.48701012 16.97099054 1.74101447 19.375 2 C20.10639191 2.06684998 20.83778381 2.13369995 21.59133911 2.20257568 C26.52598055 2.76946658 29.68840532 4.16519967 33.5546875 7.265625 C35.12404344 10.40433688 34.90669853 12.80418322 34.5546875 16.265625 C32.9296875 19.203125 32.9296875 19.203125 29.5546875 21.265625 C20.12161362 22.14098541 10.47156159 20.98057245 1.10131836 19.83129883 C-1.03538551 19.57481522 -3.17412172 19.35088193 -5.31445312 19.12695312 C-6.69294406 18.96290632 -8.07121076 18.79696156 -9.44921875 18.62890625 C-10.67455322 18.48751221 -11.8998877 18.34611816 -13.16235352 18.20043945 C-17.14988271 17.06500038 -18.82858733 15.42882949 -21.4453125 12.265625 C-22.345242 9.47054984 -22.14382091 7.10546249 -21.4453125 4.265625 C-16.47946677 -3.1831436 -7.870717 -0.81101416 0 0 Z " fill="#45250F" transform="translate(254.4453125,277.734375)"/>
<path d="M0 0 C0.61157008 8.67070467 0.52664173 15.92538686 -5 23 C-11.68343715 28.90943616 -18.75889937 31.5129604 -27.6328125 31.40234375 C-34.63375645 30.56580404 -41.32226365 28.19198849 -48 26 C-47 24 -47 24 -44.77734375 23.140625 C-43.84019531 22.84671875 -42.90304687 22.5528125 -41.9375 22.25 C-33.86638861 19.40014881 -28.92421969 15.0072606 -23.0625 8.875 C-15.94366124 1.64731049 -10.06717053 -0.63918543 0 0 Z " fill="#CBCBCA" transform="translate(498,384)"/>
</svg>
